<svg xmlns="http://www.w3.org/2000/svg" viewBox="0 0 4000 3000">
<polyline points="0 0 180 -1.25308e-05 180 180 1.25308e-05 180 0 0" style="fill:#FAAD35;stroke:#F25844;stroke-width:0.5" />
<polyline points="2.50615e-06 36 36 -2.50615e-06" style="stroke:#F25844;stroke-width:0.75" />
<circle cx="0" cy="0" r="5" style="fill:#000000" />
<text text-anchor="middle" x="90" y="90" class="small">sg13g2_Corner</text>
<text text-anchor="middle" x="90" y="110" class="small">corner_nw</text>
<polyline points="4000 0 4000 180 3820 180 3820 8.35384e-06 4000 0" style="fill:#FAAD35;stroke:#F25844;stroke-width:0.5" />
<polyline points="3964 1.67077e-06 4000 36" style="stroke:#F25844;stroke-width:0.75" />
<circle cx="4000" cy="0" r="5" style="fill:#000000" />
<text text-anchor="middle" x="3910" y="90" class="small">sg13g2_Corner</text>
<text text-anchor="middle" x="3910" y="110" class="small">corner_ne</text>
<polyline points="0 3000 0 2820 180 2820 180 3000 0 3000" style="fill:#FAAD35;stroke:#F25844;stroke-width:0.5" />
<polyline points="36 3000 0 2964" style="stroke:#F25844;stroke-width:0.75" />
<circle cx="0" cy="3000" r="5" style="fill:#000000" />
<text text-anchor="middle" x="90" y="2910" class="small">sg13g2_Corner</text>
<text text-anchor="middle" x="90" y="2930" class="small">corner_sw</text>
<polyline points="4000 3000 3820 3000 3820 2820 4000 2820 4000 3000" style="fill:#FAAD35;stroke:#F25844;stroke-width:0.5" />
<polyline points="4000 2964 3964 3000" style="stroke:#F25844;stroke-width:0.75" />
<circle cx="4000" cy="3000" r="5" style="fill:#000000" />
<text text-anchor="middle" x="3910" y="2910" class="small">sg13g2_Corner</text>
<text text-anchor="middle" x="3910" y="2930" class="small">corner_se</text>
<polyline points="360 0 360 180 180 180 180 8.35384e-06 360 0" style="fill:#BFE1F3;stroke:#179AA9;stroke-width:0.25" />
<polyline points="324 1.67077e-06 360 36" style="stroke:#F25844;stroke-width:0.75" />
<polyline points="540 0 540 180 360 180 360 8.35384e-06 540 0" style="fill:#BFE1F3;stroke:#179AA9;stroke-width:0.25" />
<polyline points="504 1.67077e-06 540 36" style="stroke:#F25844;stroke-width:0.75" />
<polyline points="720 0 720 180 540 180 540 8.35384e-06 720 0" style="fill:#BFE1F3;stroke:#179AA9;stroke-width:0.25" />
<polyline points="684 1.67077e-06 720 36" style="stroke:#F25844;stroke-width:0.75" />
<polyline points="900 0 900 180 720 180 720 8.35384e-06 900 0" style="fill:#BFE1F3;stroke:#179AA9;stroke-width:0.25" />
<polyline points="864 1.67077e-06 900 36" style="stroke:#F25844;stroke-width:0.75" />
<polyline points="950 0 950 180 900 180 900 2.32051e-06 950 0" style="fill:#BFE1F3;stroke:#179AA9;stroke-width:0.25" />
<polyline points="940 4.64102e-07 950 10" style="stroke:#F25844;stroke-width:0.75" />
<polyline points="1000 0 1000 180 950 180 950 2.32051e-06 1000 0" style="fill:#BFE1F3;stroke:#179AA9;stroke-width:0.25" />
<polyline points="990 4.64102e-07 1000 10" style="stroke:#F25844;stroke-width:0.75" />
<polyline points="1020 0 1020 180 1000 180 1000 9.28204e-07 1020 0" style="fill:#BFE1F3;stroke:#179AA9;stroke-width:0.25" />
<polyline points="1016 1.85641e-07 1020 4" style="stroke:#F25844;stroke-width:0.75" />
<polyline points="1030 0 1030 180 1020 180 1020 4.64102e-07 1030 0" style="fill:#BFE1F3;stroke:#179AA9;stroke-width:0.25" />
<polyline points="1028 9.28203e-08 1030 2" style="stroke:#F25844;stroke-width:0.75" />
<polyline points="1110 0 1110 180 1030 180 1030 3.71282e-06 1110 0" style="fill:#FAAD35;stroke:#F25844;stroke-width:0.5" />
<polyline points="1094 7.42563e-07 1110 16" style="stroke:#F25844;stroke-width:0.75" />
<text text-anchor="middle" x="1070" y="90" class="small">sg13g2_IOPadIOVss</text>
<text text-anchor="middle" x="1070" y="110" class="small">vss_1</text>
<polyline points="1290 0 1290 180 1110 180 1110 8.35384e-06 1290 0" style="fill:#BFE1F3;stroke:#179AA9;stroke-width:0.25" />
<polyline points="1254 1.67077e-06 1290 36" style="stroke:#F25844;stroke-width:0.75" />
<polyline points="1470 0 1470 180 1290 180 1290 8.35384e-06 1470 0" style="fill:#BFE1F3;stroke:#179AA9;stroke-width:0.25" />
<polyline points="1434 1.67077e-06 1470 36" style="stroke:#F25844;stroke-width:0.75" />
<polyline points="1650 0 1650 180 1470 180 1470 8.35384e-06 1650 0" style="fill:#BFE1F3;stroke:#179AA9;stroke-width:0.25" />
<polyline points="1614 1.67077e-06 1650 36" style="stroke:#F25844;stroke-width:0.75" />
<polyline points="1830 0 1830 180 1650 180 1650 8.35384e-06 1830 0" style="fill:#BFE1F3;stroke:#179AA9;stroke-width:0.25" />
<polyline points="1794 1.67077e-06 1830 36" style="stroke:#F25844;stroke-width:0.75" />
<polyline points="1880 0 1880 180 1830 180 1830 2.32051e-06 1880 0" style="fill:#BFE1F3;stroke:#179AA9;stroke-width:0.25" />
<polyline points="1870 4.64102e-07 1880 10" style="stroke:#F25844;stroke-width:0.75" />
<polyline points="1930 0 1930 180 1880 180 1880 2.32051e-06 1930 0" style="fill:#BFE1F3;stroke:#179AA9;stroke-width:0.25" />
<polyline points="1920 4.64102e-07 1930 10" style="stroke:#F25844;stroke-width:0.75" />
<polyline points="1950 0 1950 180 1930 180 1930 9.28204e-07 1950 0" style="fill:#BFE1F3;stroke:#179AA9;stroke-width:0.25" />
<polyline points="1946 1.85641e-07 1950 4" style="stroke:#F25844;stroke-width:0.75" />
<polyline points="1960 0 1960 180 1950 180 1950 4.64102e-07 1960 0" style="fill:#BFE1F3;stroke:#179AA9;stroke-width:0.25" />
<polyline points="1958 9.28203e-08 1960 2" style="stroke:#F25844;stroke-width:0.75" />
<polyline points="2040 0 2040 180 1960 180 1960 3.71282e-06 2040 0" style="fill:#FAAD35;stroke:#F25844;stroke-width:0.5" />
<polyline points="2024 7.42563e-07 2040 16" style="stroke:#F25844;stroke-width:0.75" />
<text text-anchor="middle" x="2000" y="90" class="small">sg13g2_IOPadInOut4mA</text>
<text text-anchor="middle" x="2000" y="110" class="small">gpio_1</text>
<polyline points="2220 0 2220 180 2040 180 2040 8.35384e-06 2220 0" style="fill:#BFE1F3;stroke:#179AA9;stroke-width:0.25" />
<polyline points="2184 1.67077e-06 2220 36" style="stroke:#F25844;stroke-width:0.75" />
<polyline points="2400 0 2400 180 2220 180 2220 8.35384e-06 2400 0" style="fill:#BFE1F3;stroke:#179AA9;stroke-width:0.25" />
<polyline points="2364 1.67077e-06 2400 36" style="stroke:#F25844;stroke-width:0.75" />
<polyline points="2580 0 2580 180 2400 180 2400 8.35384e-06 2580 0" style="fill:#BFE1F3;stroke:#179AA9;stroke-width:0.25" />
<polyline points="2544 1.67077e-06 2580 36" style="stroke:#F25844;stroke-width:0.75" />
<polyline points="2760 0 2760 180 2580 180 2580 8.35384e-06 2760 0" style="fill:#BFE1F3;stroke:#179AA9;stroke-width:0.25" />
<polyline points="2724 1.67077e-06 2760 36" style="stroke:#F25844;stroke-width:0.75" />
<polyline points="2810 0 2810 180 2760 180 2760 2.32051e-06 2810 0" style="fill:#BFE1F3;stroke:#179AA9;stroke-width:0.25" />
<polyline points="2800 4.64102e-07 2810 10" style="stroke:#F25844;stroke-width:0.75" />
<polyline points="2860 0 2860 180 2810 180 2810 2.32051e-06 2860 0" style="fill:#BFE1F3;stroke:#179AA9;stroke-width:0.25" />
<polyline points="2850 4.64102e-07 2860 10" style="stroke:#F25844;stroke-width:0.75" />
<polyline points="2880 0 2880 180 2860 180 2860 9.28204e-07 2880 0" style="fill:#BFE1F3;stroke:#179AA9;stroke-width:0.25" />
<polyline points="2876 1.85641e-07 2880 4" style="stroke:#F25844;stroke-width:0.75" />
<polyline points="2890 0 2890 180 2880 180 2880 4.64102e-07 2890 0" style="fill:#BFE1F3;stroke:#179AA9;stroke-width:0.25" />
<polyline points="2888 9.28203e-08 2890 2" style="stroke:#F25844;stroke-width:0.75" />
<polyline points="2970 0 2970 180 2890 180 2890 3.71282e-06 2970 0" style="fill:#FAAD35;stroke:#F25844;stroke-width:0.5" />
<polyline points="2954 7.42563e-07 2970 16" style="stroke:#F25844;stroke-width:0.75" />
<text text-anchor="middle" x="2930" y="90" class="small">sg13g2_IOPadIOVdd</text>
<text text-anchor="middle" x="2930" y="110" class="small">vdd_1</text>
<polyline points="3150 0 3150 180 2970 180 2970 8.35384e-06 3150 0" style="fill:#BFE1F3;stroke:#179AA9;stroke-width:0.25" />
<polyline points="3114 1.67077e-06 3150 36" style="stroke:#F25844;stroke-width:0.75" />
<polyline points="3330 0 3330 180 3150 180 3150 8.35384e-06 3330 0" style="fill:#BFE1F3;stroke:#179AA9;stroke-width:0.25" />
<polyline points="3294 1.67077e-06 3330 36" style="stroke:#F25844;stroke-width:0.75" />
<polyline points="3510 0 3510 180 3330 180 3330 8.35384e-06 3510 0" style="fill:#BFE1F3;stroke:#179AA9;stroke-width:0.25" />
<polyline points="3474 1.67077e-06 3510 36" style="stroke:#F25844;stroke-width:0.75" />
<polyline points="3690 0 3690 180 3510 180 3510 8.35384e-06 3690 0" style="fill:#BFE1F3;stroke:#179AA9;stroke-width:0.25" />
<polyline points="3654 1.67077e-06 3690 36" style="stroke:#F25844;stroke-width:0.75" />
<polyline points="3740 0 3740 180 3690 180 3690 2.32051e-06 3740 0" style="fill:#BFE1F3;stroke:#179AA9;stroke-width:0.25" />
<polyline points="3730 4.64102e-07 3740 10" style="stroke:#F25844;stroke-width:0.75" />
<polyline points="3790 0 3790 180 3740 180 3740 2.32051e-06 3790 0" style="fill:#BFE1F3;stroke:#179AA9;stroke-width:0.25" />
<polyline points="3780 4.64102e-07 3790 10" style="stroke:#F25844;stroke-width:0.75" />
<polyline points="3810 0 3810 180 3790 180 3790 9.28204e-07 3810 0" style="fill:#BFE1F3;stroke:#179AA9;stroke-width:0.25" />
<polyline points="3806 1.85641e-07 3810 4" style="stroke:#F25844;stroke-width:0.75" />
<polyline points="3820 0 3820 180 3810 180 3810 4.64102e-07 3820 0" style="fill:#BFE1F3;stroke:#179AA9;stroke-width:0.25" />
<polyline points="3818 9.28203e-08 3820 2" style="stroke:#F25844;stroke-width:0.75" />
<polyline points="180 3000 180 2820 360 2820 360 3000 180 3000" style="fill:#BFE1F3;stroke:#179AA9;stroke-width:0.25" />
<polyline points="216 3000 180 2964" style="stroke:#F25844;stroke-width:0.75" />
<polyline points="360 3000 360 2820 540 2820 540 3000 360 3000" style="fill:#BFE1F3;stroke:#179AA9;stroke-width:0.25" />
<polyline points="396 3000 360 2964" style="stroke:#F25844;stroke-width:0.75" />
<polyline points="540 3000 540 2820 720 2820 720 3000 540 3000" style="fill:#BFE1F3;stroke:#179AA9;stroke-width:0.25" />
<polyline points="576 3000 540 2964" style="stroke:#F25844;stroke-width:0.75" />
<polyline points="720 3000 720 2820 900 2820 900 3000 720 3000" style="fill:#BFE1F3;stroke:#179AA9;stroke-width:0.25" />
<polyline points="756 3000 720 2964" style="stroke:#F25844;stroke-width:0.75" />
<polyline points="900 3000 900 2820 950 2820 950 3000 900 3000" style="fill:#BFE1F3;stroke:#179AA9;stroke-width:0.25" />
<polyline points="910 3000 900 2990" style="stroke:#F25844;stroke-width:0.75" />
<polyline points="950 3000 950 2820 1000 2820 1000 3000 950 3000" style="fill:#BFE1F3;stroke:#179AA9;stroke-width:0.25" />
<polyline points="960 3000 950 2990" style="stroke:#F25844;stroke-width:0.75" />
<polyline points="1000 3000 1000 2820 1020 2820 1020 3000 1000 3000" style="fill:#BFE1F3;stroke:#179AA9;stroke-width:0.25" />
<polyline points="1004 3000 1000 2996" style="stroke:#F25844;stroke-width:0.75" />
<polyline points="1020 3000 1020 2820 1030 2820 1030 3000 1020 3000" style="fill:#BFE1F3;stroke:#179AA9;stroke-width:0.25" />
<polyline points="1022 3000 1020 2998" style="stroke:#F25844;stroke-width:0.75" />
<polyline points="1030 3000 1030 2820 1110 2820 1110 3000 1030 3000" style="fill:#FAAD35;stroke:#F25844;stroke-width:0.5" />
<polyline points="1046 3000 1030 2984" style="stroke:#F25844;stroke-width:0.75" />
<text text-anchor="middle" x="1070" y="2910" class="small">sg13g2_IOPadIOVss</text>
<text text-anchor="middle" x="1070" y="2930" class="small">vss_0</text>
<polyline points="1110 3000 1110 2820 1290 2820 1290 3000 1110 3000" style="fill:#BFE1F3;stroke:#179AA9;stroke-width:0.25" />
<polyline points="1146 3000 1110 2964" style="stroke:#F25844;stroke-width:0.75" />
<polyline points="1290 3000 1290 2820 1470 2820 1470 3000 1290 3000" style="fill:#BFE1F3;stroke:#179AA9;stroke-width:0.25" />
<polyline points="1326 3000 1290 2964" style="stroke:#F25844;stroke-width:0.75" />
<polyline points="1470 3000 1470 2820 1650 2820 1650 3000 1470 3000" style="fill:#BFE1F3;stroke:#179AA9;stroke-width:0.25" />
<polyline points="1506 3000 1470 2964" style="stroke:#F25844;stroke-width:0.75" />
<polyline points="1650 3000 1650 2820 1830 2820 1830 3000 1650 3000" style="fill:#BFE1F3;stroke:#179AA9;stroke-width:0.25" />
<polyline points="1686 3000 1650 2964" style="stroke:#F25844;stroke-width:0.75" />
<polyline points="1830 3000 1830 2820 1880 2820 1880 3000 1830 3000" style="fill:#BFE1F3;stroke:#179AA9;stroke-width:0.25" />
<polyline points="1840 3000 1830 2990" style="stroke:#F25844;stroke-width:0.75" />
<polyline points="1880 3000 1880 2820 1930 2820 1930 3000 1880 3000" style="fill:#BFE1F3;stroke:#179AA9;stroke-width:0.25" />
<polyline points="1890 3000 1880 2990" style="stroke:#F25844;stroke-width:0.75" />
<polyline points="1930 3000 1930 2820 1950 2820 1950 3000 1930 3000" style="fill:#BFE1F3;stroke:#179AA9;stroke-width:0.25" />
<polyline points="1934 3000 1930 2996" style="stroke:#F25844;stroke-width:0.75" />
<polyline points="1950 3000 1950 2820 1960 2820 1960 3000 1950 3000" style="fill:#BFE1F3;stroke:#179AA9;stroke-width:0.25" />
<polyline points="1952 3000 1950 2998" style="stroke:#F25844;stroke-width:0.75" />
<polyline points="1960 3000 1960 2820 2040 2820 2040 3000 1960 3000" style="fill:#FAAD35;stroke:#F25844;stroke-width:0.5" />
<polyline points="1976 3000 1960 2984" style="stroke:#F25844;stroke-width:0.75" />
<text text-anchor="middle" x="2000" y="2910" class="small">sg13g2_IOPadInOut4mA</text>
<text text-anchor="middle" x="2000" y="2930" class="small">gpio_0</text>
<polyline points="2040 3000 2040 2820 2220 2820 2220 3000 2040 3000" style="fill:#BFE1F3;stroke:#179AA9;stroke-width:0.25" />
<polyline points="2076 3000 2040 2964" style="stroke:#F25844;stroke-width:0.75" />
<polyline points="2220 3000 2220 2820 2400 2820 2400 3000 2220 3000" style="fill:#BFE1F3;stroke:#179AA9;stroke-width:0.25" />
<polyline points="2256 3000 2220 2964" style="stroke:#F25844;stroke-width:0.75" />
<polyline points="2400 3000 2400 2820 2580 2820 2580 3000 2400 3000" style="fill:#BFE1F3;stroke:#179AA9;stroke-width:0.25" />
<polyline points="2436 3000 2400 2964" style="stroke:#F25844;stroke-width:0.75" />
<polyline points="2580 3000 2580 2820 2760 2820 2760 3000 2580 3000" style="fill:#BFE1F3;stroke:#179AA9;stroke-width:0.25" />
<polyline points="2616 3000 2580 2964" style="stroke:#F25844;stroke-width:0.75" />
<polyline points="2760 3000 2760 2820 2810 2820 2810 3000 2760 3000" style="fill:#BFE1F3;stroke:#179AA9;stroke-width:0.25" />
<polyline points="2770 3000 2760 2990" style="stroke:#F25844;stroke-width:0.75" />
<polyline points="2810 3000 2810 2820 2860 2820 2860 3000 2810 3000" style="fill:#BFE1F3;stroke:#179AA9;stroke-width:0.25" />
<polyline points="2820 3000 2810 2990" style="stroke:#F25844;stroke-width:0.75" />
<polyline points="2860 3000 2860 2820 2880 2820 2880 3000 2860 3000" style="fill:#BFE1F3;stroke:#179AA9;stroke-width:0.25" />
<polyline points="2864 3000 2860 2996" style="stroke:#F25844;stroke-width:0.75" />
<polyline points="2880 3000 2880 2820 2890 2820 2890 3000 2880 3000" style="fill:#BFE1F3;stroke:#179AA9;stroke-width:0.25" />
<polyline points="2882 3000 2880 2998" style="stroke:#F25844;stroke-width:0.75" />
<polyline points="2890 3000 2890 2820 2970 2820 2970 3000 2890 3000" style="fill:#FAAD35;stroke:#F25844;stroke-width:0.5" />
<polyline points="2906 3000 2890 2984" style="stroke:#F25844;stroke-width:0.75" />
<text text-anchor="middle" x="2930" y="2910" class="small">sg13g2_IOPadIOVdd</text>
<text text-anchor="middle" x="2930" y="2930" class="small">vdd_0</text>
<polyline points="2970 3000 2970 2820 3150 2820 3150 3000 2970 3000" style="fill:#BFE1F3;stroke:#179AA9;stroke-width:0.25" />
<polyline points="3006 3000 2970 2964" style="stroke:#F25844;stroke-width:0.75" />
<polyline points="3150 3000 3150 2820 3330 2820 3330 3000 3150 3000" style="fill:#BFE1F3;stroke:#179AA9;stroke-width:0.25" />
<polyline points="3186 3000 3150 2964" style="stroke:#F25844;stroke-width:0.75" />
<polyline points="3330 3000 3330 2820 3510 2820 3510 3000 3330 3000" style="fill:#BFE1F3;stroke:#179AA9;stroke-width:0.25" />
<polyline points="3366 3000 3330 2964" style="stroke:#F25844;stroke-width:0.75" />
<polyline points="3510 3000 3510 2820 3690 2820 3690 3000 3510 3000" style="fill:#BFE1F3;stroke:#179AA9;stroke-width:0.25" />
<polyline points="3546 3000 3510 2964" style="stroke:#F25844;stroke-width:0.75" />
<polyline points="3690 3000 3690 2820 3740 2820 3740 3000 3690 3000" style="fill:#BFE1F3;stroke:#179AA9;stroke-width:0.25" />
<polyline points="3700 3000 3690 2990" style="stroke:#F25844;stroke-width:0.75" />
<polyline points="3740 3000 3740 2820 3790 2820 3790 3000 3740 3000" style="fill:#BFE1F3;stroke:#179AA9;stroke-width:0.25" />
<polyline points="3750 3000 3740 2990" style="stroke:#F25844;stroke-width:0.75" />
<polyline points="3790 3000 3790 2820 3810 2820 3810 3000 3790 3000" style="fill:#BFE1F3;stroke:#179AA9;stroke-width:0.25" />
<polyline points="3794 3000 3790 2996" style="stroke:#F25844;stroke-width:0.75" />
<polyline points="3810 3000 3810 2820 3820 2820 3820 3000 3810 3000" style="fill:#BFE1F3;stroke:#179AA9;stroke-width:0.25" />
<polyline points="3812 3000 3810 2998" style="stroke:#F25844;stroke-width:0.75" />
<polyline points="0 2640 180 2640 180 2820 1.25308e-05 2820 0 2640" style="fill:#BFE1F3;stroke:#179AA9;stroke-width:0.25" />
<polyline points="2.50615e-06 2676 36 2640" style="stroke:#F25844;stroke-width:0.75" />
<polyline points="0 2460 180 2460 180 2640 1.25308e-05 2640 0 2460" style="fill:#BFE1F3;stroke:#179AA9;stroke-width:0.25" />
<polyline points="2.50615e-06 2496 36 2460" style="stroke:#F25844;stroke-width:0.75" />
<polyline points="0 2280 180 2280 180 2460 1.25308e-05 2460 0 2280" style="fill:#BFE1F3;stroke:#179AA9;stroke-width:0.25" />
<polyline points="2.50615e-06 2316 36 2280" style="stroke:#F25844;stroke-width:0.75" />
<polyline points="0 2230 180 2230 180 2280 3.48077e-06 2280 0 2230" style="fill:#BFE1F3;stroke:#179AA9;stroke-width:0.25" />
<polyline points="6.96153e-07 2240 10 2230" style="stroke:#F25844;stroke-width:0.75" />
<polyline points="0 2220 180 2220 180 2230 6.96153e-07 2230 0 2220" style="fill:#BFE1F3;stroke:#179AA9;stroke-width:0.25" />
<polyline points="1.39231e-07 2222 2 2220" style="stroke:#F25844;stroke-width:0.75" />
<polyline points="0 2140 180 2140 180 2220 5.56922e-06 2220 0 2140" style="fill:#FAAD35;stroke:#F25844;stroke-width:0.5" />
<polyline points="1.11384e-06 2156 16 2140" style="stroke:#F25844;stroke-width:0.75" />
<text text-anchor="middle" x="90" y="2180" class="small">sg13g2_IOPadIOVss</text>
<text text-anchor="middle" x="90" y="2200" class="small">vss_2</text>
<polyline points="0 1960 180 1960 180 2140 1.25308e-05 2140 0 1960" style="fill:#BFE1F3;stroke:#179AA9;stroke-width:0.25" />
<polyline points="2.50615e-06 1996 36 1960" style="stroke:#F25844;stroke-width:0.75" />
<polyline points="0 1780 180 1780 180 1960 1.25308e-05 1960 0 1780" style="fill:#BFE1F3;stroke:#179AA9;stroke-width:0.25" />
<polyline points="2.50615e-06 1816 36 1780" style="stroke:#F25844;stroke-width:0.75" />
<polyline points="0 1600 180 1600 180 1780 1.25308e-05 1780 0 1600" style="fill:#BFE1F3;stroke:#179AA9;stroke-width:0.25" />
<polyline points="2.50615e-06 1636 36 1600" style="stroke:#F25844;stroke-width:0.75" />
<polyline points="0 1550 180 1550 180 1600 3.48077e-06 1600 0 1550" style="fill:#BFE1F3;stroke:#179AA9;stroke-width:0.25" />
<polyline points="6.96153e-07 1560 10 1550" style="stroke:#F25844;stroke-width:0.75" />
<polyline points="0 1540 180 1540 180 1550 6.96153e-07 1550 0 1540" style="fill:#BFE1F3;stroke:#179AA9;stroke-width:0.25" />
<polyline points="1.39231e-07 1542 2 1540" style="stroke:#F25844;stroke-width:0.75" />
<polyline points="0 1460 180 1460 180 1540 5.56922e-06 1540 0 1460" style="fill:#FAAD35;stroke:#F25844;stroke-width:0.5" />
<polyline points="1.11384e-06 1476 16 1460" style="stroke:#F25844;stroke-width:0.75" />
<text text-anchor="middle" x="90" y="1500" class="small">sg13g2_IOPadInOut4mA</text>
<text text-anchor="middle" x="90" y="1520" class="small">gpio_2</text>
<polyline points="0 1280 180 1280 180 1460 1.25308e-05 1460 0 1280" style="fill:#BFE1F3;stroke:#179AA9;stroke-width:0.25" />
<polyline points="2.50615e-06 1316 36 1280" style="stroke:#F25844;stroke-width:0.75" />
<polyline points="0 1100 180 1100 180 1280 1.25308e-05 1280 0 1100" style="fill:#BFE1F3;stroke:#179AA9;stroke-width:0.25" />
<polyline points="2.50615e-06 1136 36 1100" style="stroke:#F25844;stroke-width:0.75" />
<polyline points="0 920 180 920 180 1100 1.25308e-05 1100 0 920" style="fill:#BFE1F3;stroke:#179AA9;stroke-width:0.25" />
<polyline points="2.50615e-06 956 36 920" style="stroke:#F25844;stroke-width:0.75" />
<polyline points="0 870 180 870 180 920 3.48077e-06 920 0 870" style="fill:#BFE1F3;stroke:#179AA9;stroke-width:0.25" />
<polyline points="6.96153e-07 880 10 870" style="stroke:#F25844;stroke-width:0.75" />
<polyline points="0 860 180 860 180 870 6.96153e-07 870 0 860" style="fill:#BFE1F3;stroke:#179AA9;stroke-width:0.25" />
<polyline points="1.39231e-07 862 2 860" style="stroke:#F25844;stroke-width:0.75" />
<polyline points="0 780 180 780 180 860 5.56922e-06 860 0 780" style="fill:#FAAD35;stroke:#F25844;stroke-width:0.5" />
<polyline points="1.11384e-06 796 16 780" style="stroke:#F25844;stroke-width:0.75" />
<text text-anchor="middle" x="90" y="820" class="small">sg13g2_IOPadIOVdd</text>
<text text-anchor="middle" x="90" y="840" class="small">vdd_2</text>
<polyline points="0 600 180 600 180 780 1.25308e-05 780 0 600" style="fill:#BFE1F3;stroke:#179AA9;stroke-width:0.25" />
<polyline points="2.50615e-06 636 36 600" style="stroke:#F25844;stroke-width:0.75" />
<polyline points="0 420 180 420 180 600 1.25308e-05 600 0 420" style="fill:#BFE1F3;stroke:#179AA9;stroke-width:0.25" />
<polyline points="2.50615e-06 456 36 420" style="stroke:#F25844;stroke-width:0.75" />
<polyline points="0 240 180 240 180 420 1.25308e-05 420 0 240" style="fill:#BFE1F3;stroke:#179AA9;stroke-width:0.25" />
<polyline points="2.50615e-06 276 36 240" style="stroke:#F25844;stroke-width:0.75" />
<polyline points="0 190 180 190 180 240 3.48077e-06 240 0 190" style="fill:#BFE1F3;stroke:#179AA9;stroke-width:0.25" />
<polyline points="6.96153e-07 200 10 190" style="stroke:#F25844;stroke-width:0.75" />
<polyline points="0 180 180 180 180 190 6.96153e-07 190 0 180" style="fill:#BFE1F3;stroke:#179AA9;stroke-width:0.25" />
<polyline points="1.39231e-07 182 2 180" style="stroke:#F25844;stroke-width:0.75" />
<polyline points="4000 2820 3820 2820 3820 2640 4000 2640 4000 2820" style="fill:#BFE1F3;stroke:#179AA9;stroke-width:0.25" />
<polyline points="4000 2784 3964 2820" style="stroke:#F25844;stroke-width:0.75" />
<polyline points="4000 2640 3820 2640 3820 2460 4000 2460 4000 2640" style="fill:#BFE1F3;stroke:#179AA9;stroke-width:0.25" />
<polyline points="4000 2604 3964 2640" style="stroke:#F25844;stroke-width:0.75" />
<polyline points="4000 2460 3820 2460 3820 2280 4000 2280 4000 2460" style="fill:#BFE1F3;stroke:#179AA9;stroke-width:0.25" />
<polyline points="4000 2424 3964 2460" style="stroke:#F25844;stroke-width:0.75" />
<polyline points="4000 2280 3820 2280 3820 2230 4000 2230 4000 2280" style="fill:#BFE1F3;stroke:#179AA9;stroke-width:0.25" />
<polyline points="4000 2270 3990 2280" style="stroke:#F25844;stroke-width:0.75" />
<polyline points="4000 2230 3820 2230 3820 2220 4000 2220 4000 2230" style="fill:#BFE1F3;stroke:#179AA9;stroke-width:0.25" />
<polyline points="4000 2228 3998 2230" style="stroke:#F25844;stroke-width:0.75" />
<polyline points="4000 2220 3820 2220 3820 2140 4000 2140 4000 2220" style="fill:#FAAD35;stroke:#F25844;stroke-width:0.5" />
<polyline points="4000 2204 3984 2220" style="stroke:#F25844;stroke-width:0.75" />
<text text-anchor="middle" x="3910" y="2180" class="small">sg13g2_IOPadIOVss</text>
<text text-anchor="middle" x="3910" y="2200" class="small">vss_3</text>
<polyline points="4000 2140 3820 2140 3820 1960 4000 1960 4000 2140" style="fill:#BFE1F3;stroke:#179AA9;stroke-width:0.25" />
<polyline points="4000 2104 3964 2140" style="stroke:#F25844;stroke-width:0.75" />
<polyline points="4000 1960 3820 1960 3820 1780 4000 1780 4000 1960" style="fill:#BFE1F3;stroke:#179AA9;stroke-width:0.25" />
<polyline points="4000 1924 3964 1960" style="stroke:#F25844;stroke-width:0.75" />
<polyline points="4000 1780 3820 1780 3820 1600 4000 1600 4000 1780" style="fill:#BFE1F3;stroke:#179AA9;stroke-width:0.25" />
<polyline points="4000 1744 3964 1780" style="stroke:#F25844;stroke-width:0.75" />
<polyline points="4000 1600 3820 1600 3820 1550 4000 1550 4000 1600" style="fill:#BFE1F3;stroke:#179AA9;stroke-width:0.25" />
<polyline points="4000 1590 3990 1600" style="stroke:#F25844;stroke-width:0.75" />
<polyline points="4000 1550 3820 1550 3820 1540 4000 1540 4000 1550" style="fill:#BFE1F3;stroke:#179AA9;stroke-width:0.25" />
<polyline points="4000 1548 3998 1550" style="stroke:#F25844;stroke-width:0.75" />
<polyline points="4000 1540 3820 1540 3820 1460 4000 1460 4000 1540" style="fill:#FAAD35;stroke:#F25844;stroke-width:0.5" />
<polyline points="4000 1524 3984 1540" style="stroke:#F25844;stroke-width:0.75" />
<text text-anchor="middle" x="3910" y="1500" class="small">sg13g2_IOPadInOut4mA</text>
<text text-anchor="middle" x="3910" y="1520" class="small">gpio_3</text>
<polyline points="4000 1460 3820 1460 3820 1280 4000 1280 4000 1460" style="fill:#BFE1F3;stroke:#179AA9;stroke-width:0.25" />
<polyline points="4000 1424 3964 1460" style="stroke:#F25844;stroke-width:0.75" />
<polyline points="4000 1280 3820 1280 3820 1100 4000 1100 4000 1280" style="fill:#BFE1F3;stroke:#179AA9;stroke-width:0.25" />
<polyline points="4000 1244 3964 1280" style="stroke:#F25844;stroke-width:0.75" />
<polyline points="4000 1100 3820 1100 3820 920 4000 920 4000 1100" style="fill:#BFE1F3;stroke:#179AA9;stroke-width:0.25" />
<polyline points="4000 1064 3964 1100" style="stroke:#F25844;stroke-width:0.75" />
<polyline points="4000 920 3820 920 3820 870 4000 870 4000 920" style="fill:#BFE1F3;stroke:#179AA9;stroke-width:0.25" />
<polyline points="4000 910 3990 920" style="stroke:#F25844;stroke-width:0.75" />
<polyline points="4000 870 3820 870 3820 860 4000 860 4000 870" style="fill:#BFE1F3;stroke:#179AA9;stroke-width:0.25" />
<polyline points="4000 868 3998 870" style="stroke:#F25844;stroke-width:0.75" />
<polyline points="4000 860 3820 860 3820 780 4000 780 4000 860" style="fill:#FAAD35;stroke:#F25844;stroke-width:0.5" />
<polyline points="4000 844 3984 860" style="stroke:#F25844;stroke-width:0.75" />
<text text-anchor="middle" x="3910" y="820" class="small">sg13g2_IOPadIOVdd</text>
<text text-anchor="middle" x="3910" y="840" class="small">vdd_3</text>
<polyline points="4000 780 3820 780 3820 600 4000 600 4000 780" style="fill:#BFE1F3;stroke:#179AA9;stroke-width:0.25" />
<polyline points="4000 744 3964 780" style="stroke:#F25844;stroke-width:0.75" />
<polyline points="4000 600 3820 600 3820 420 4000 420 4000 600" style="fill:#BFE1F3;stroke:#179AA9;stroke-width:0.25" />
<polyline points="4000 564 3964 600" style="stroke:#F25844;stroke-width:0.75" />
<polyline points="4000 420 3820 420 3820 240 4000 240 4000 420" style="fill:#BFE1F3;stroke:#179AA9;stroke-width:0.25" />
<polyline points="4000 384 3964 420" style="stroke:#F25844;stroke-width:0.75" />
<polyline points="4000 240 3820 240 3820 190 4000 190 4000 240" style="fill:#BFE1F3;stroke:#179AA9;stroke-width:0.25" />
<polyline points="4000 230 3990 240" style="stroke:#F25844;stroke-width:0.75" />
<polyline points="4000 190 3820 190 3820 180 4000 180 4000 190" style="fill:#BFE1F3;stroke:#179AA9;stroke-width:0.25" />
<polyline points="4000 188 3998 190" style="stroke:#F25844;stroke-width:0.75" />
</svg>
